<svg width="12" height="12" viewBox="0 0 12 12" fill="none" xmlns="http://www.w3.org/2000/svg">
<path d="M5.99496 11.0056C8.84262 11.0056 11.1931 8.65515 11.1931 5.80749C11.1931 2.96486 8.83759 0.61441 5.98994 0.61441C3.1473 0.61441 0.80188 2.96486 0.80188 5.80749C0.80188 8.65515 3.15233 11.0056 5.99496 11.0056ZM2.88614 3.8739C2.88614 3.69812 3.0117 3.57256 3.18246 3.57256H4.0463C4.29742 3.57256 4.47822 3.72323 4.51338 3.95425L4.55355 4.26564H8.59652C8.77733 4.26564 8.87275 4.36608 8.87275 4.51675C8.87275 4.54187 8.86773 4.58707 8.86271 4.6172L8.67186 5.91798C8.61661 6.30972 8.4107 6.54075 8.01393 6.54075H4.89005L4.91516 6.73662C4.93525 6.87724 5.02565 6.9576 5.15623 6.9576H7.90344C8.06918 6.9576 8.18971 7.06809 8.18971 7.23885C8.18971 7.41966 8.06918 7.53015 7.90344 7.53015H5.1261C4.66404 7.53015 4.39786 7.30414 4.33759 6.88729L3.94585 4.17524H3.18246C3.0117 4.17524 2.88614 4.04968 2.88614 3.8739ZM4.75445 8.3287C4.75445 8.06251 4.96538 7.85158 5.23157 7.85158C5.49775 7.85158 5.70869 8.06251 5.70869 8.3287C5.70869 8.59488 5.49775 8.80079 5.23157 8.80079C4.96538 8.80079 4.75445 8.59488 4.75445 8.3287ZM7.00445 8.3287C7.00445 8.06251 7.22041 7.85158 7.48659 7.85158C7.75277 7.85158 7.96371 8.06251 7.96371 8.3287C7.96371 8.59488 7.75277 8.80079 7.48659 8.80079C7.22041 8.80079 7.00445 8.59488 7.00445 8.3287Z" fill="#523BDA"/>
</svg>
