<svg width="14" height="14" viewBox="0 0 14 14" fill="none" xmlns="http://www.w3.org/2000/svg">
<path d="M6.99379 13.2444C10.5534 13.2444 13.4914 10.3064 13.4914 6.75307C13.4914 3.19978 10.5471 0.261719 6.98751 0.261719C3.43422 0.261719 0.502441 3.19978 0.502441 6.75307C0.502441 10.3064 3.4405 13.2444 6.99379 13.2444ZM6.99379 11.9512C4.11223 11.9512 1.80824 9.63463 1.80824 6.75307C1.80824 3.87151 4.11223 1.56124 6.98751 1.56124C9.86907 1.56124 12.1856 3.87151 12.1919 6.75307C12.1982 9.63463 9.87535 11.9512 6.99379 11.9512ZM3.82973 7.54408H6.98751C7.2763 7.54408 7.49602 7.32436 7.49602 7.04185V2.9361C7.49602 2.6536 7.2763 2.43387 6.98751 2.43387C6.71129 2.43387 6.49156 2.6536 6.49156 2.9361V6.53962H3.82973C3.54722 6.53962 3.3275 6.75935 3.3275 7.04185C3.3275 7.32436 3.54722 7.54408 3.82973 7.54408Z" fill="#523BDA"/>
</svg>
