<svg width="24" height="24" viewBox="0 0 24 24" fill="none" xmlns="http://www.w3.org/2000/svg">
<rect width="24" height="24" rx="12" fill="#1C1C1D"/>
<path fill-rule="evenodd" clip-rule="evenodd" d="M16.1853 8.18535C15.8338 7.83381 15.2638 7.83385 14.9122 8.18545L11.9429 11.1548L9.03007 8.24199C8.67853 7.89045 8.10853 7.89049 7.75693 8.24209C7.40533 8.59369 7.40529 9.16369 7.75683 9.51523L10.6696 12.428L7.70017 15.3975C7.34857 15.7491 7.34852 16.3191 7.70006 16.6706C8.0516 17.0222 8.62161 17.0221 8.97321 16.6705L11.9427 13.7011L14.855 16.6134C15.2065 16.9649 15.7765 16.9649 16.1281 16.6133C16.4797 16.2617 16.4798 15.6917 16.1282 15.3402L13.2159 12.4278L16.1852 9.45849C16.5368 9.10689 16.5369 8.53689 16.1853 8.18535Z" fill="#8D8D8E"/>
</svg>
