<svg width="24" height="24" viewBox="0 0 24 24" fill="none" xmlns="http://www.w3.org/2000/svg">
<rect width="24" height="24" rx="4" fill="#523BDA"/>
<path d="M15.8045 11.7116C15.8045 9.17278 14.8553 6.8374 13.1979 5.1047C12.9041 4.7883 12.4747 4.8109 12.2336 5.0821C11.985 5.35331 12.0302 5.74505 12.3165 6.04639C13.7403 7.53802 14.5163 9.53439 14.5163 11.7116C14.5163 13.8887 13.7403 15.8851 12.3165 17.3767C12.0302 17.6781 11.985 18.0698 12.2336 18.3335C12.4747 18.6122 12.9041 18.6348 13.1979 18.3184C14.8553 16.5782 15.8045 14.2503 15.8045 11.7116ZM13.0623 11.7116C13.0623 9.90353 12.4144 8.22356 11.2543 6.95794C10.9529 6.634 10.516 6.62646 10.2523 6.9278C10.0037 7.20654 10.0715 7.57568 10.3578 7.89209C11.2693 8.92418 11.7741 10.2501 11.7741 11.7116C11.7741 13.1655 11.2693 14.499 10.3578 15.531C10.0715 15.8474 10.0037 16.2091 10.2523 16.4953C10.516 16.7891 10.9529 16.7891 11.2543 16.4577C12.4144 15.1996 13.0623 13.5196 13.0623 11.7116ZM10.3126 11.7116C10.3126 10.687 9.96603 9.72273 9.35582 8.95431C9.08462 8.60777 8.61001 8.60024 8.34634 8.89404C8.09773 9.17278 8.1806 9.51179 8.43674 9.86586C8.82094 10.3706 9.02435 11.011 9.02435 11.7116C9.02435 12.4122 8.82094 13.0525 8.43674 13.5573C8.1806 13.9038 8.09773 14.2428 8.34634 14.5216C8.61001 14.8229 9.08462 14.8154 9.35582 14.4613C9.96603 13.7004 10.3126 12.7361 10.3126 11.7116Z" fill="white"/>
</svg>
