<svg width="48" height="48" viewBox="0 0 48 48" fill="none" xmlns="http://www.w3.org/2000/svg">
<rect width="48" height="48" rx="4" fill="#1C1C1D"/>
<path d="M23.5693 32.4873C28.2979 32.4873 31.4619 29.2969 31.4619 24.498C31.4619 16.5527 24.668 13.2305 19.9746 13.2305C19.0781 13.2305 18.4893 13.5645 18.4893 14.2061C18.4893 14.4521 18.6035 14.7158 18.7969 14.9443C19.8779 16.2451 20.8887 17.6689 20.8975 19.3564C20.8975 19.5322 20.8887 19.6904 20.8535 19.8662C20.335 18.7852 19.4736 18.1523 18.6914 18.1523C18.2783 18.1523 17.9971 18.4424 17.9971 18.8994C17.9971 19.1631 18.0586 19.6553 18.0586 20.0859C18.0586 22.0986 16.5293 23.1445 16.5293 26.3789C16.5293 30.0439 19.333 32.4873 23.5693 32.4873ZM23.7803 29.7803C22.1455 29.7803 21.0645 28.8047 21.0645 27.3369C21.0645 25.8076 22.1367 25.2979 22.2773 24.2432C22.2949 24.1377 22.374 24.0938 22.4707 24.1729C22.8574 24.5244 23.1123 24.9639 23.3232 25.4912C23.7715 24.8145 23.9473 23.54 23.7891 22.1689C23.7715 22.0547 23.8594 21.9932 23.9648 22.0371C25.8633 22.9072 26.8828 24.7881 26.8828 26.5459C26.8828 28.3037 25.8281 29.7803 23.7803 29.7803Z" fill="white"/>
</svg>
