<svg width="48" height="48" viewBox="0 0 48 48" fill="none" xmlns="http://www.w3.org/2000/svg">
<rect width="48" height="48" rx="4" fill="#1C1C1D"/>
<path d="M22.6465 31.8369C23.0596 31.8369 23.3672 31.5117 23.3672 31.1162V16.2012C23.3672 15.7969 23.0508 15.4805 22.6465 15.4805C22.2422 15.4805 21.9258 15.7969 21.9258 16.2012V31.1162C21.9258 31.5117 22.2422 31.8369 22.6465 31.8369ZM28.0518 30.0879C28.4648 30.0879 28.7725 29.7715 28.7725 29.3672V17.9502C28.7725 17.5459 28.4561 17.2295 28.0518 17.2295C27.6387 17.2295 27.3311 17.5459 27.3311 17.9502V29.3672C27.3311 29.7715 27.6387 30.0879 28.0518 30.0879ZM19.9395 28.8311C20.3525 28.8311 20.6689 28.5146 20.6689 28.1104V19.207C20.6689 18.8027 20.3525 18.4863 19.9395 18.4863C19.5352 18.4863 19.2275 18.8027 19.2275 19.207V28.1104C19.2275 28.5146 19.5352 28.8311 19.9395 28.8311ZM25.3535 27.7236C25.7578 27.7236 26.0654 27.3984 26.0654 27.0029V20.3145C26.0654 19.9102 25.7578 19.5938 25.3535 19.5938C24.9404 19.5938 24.6328 19.9189 24.6328 20.3145V27.0029C24.6328 27.3984 24.9404 27.7236 25.3535 27.7236ZM30.75 26.2295C31.1631 26.2295 31.4707 25.9131 31.4707 25.5088V21.8086C31.4707 21.4043 31.1631 21.0879 30.75 21.0879C30.3369 21.0879 30.0293 21.4043 30.0293 21.8086V25.5088C30.0293 25.9131 30.3457 26.2295 30.75 26.2295ZM17.2412 25.5352C17.6543 25.5352 17.9619 25.2188 17.9619 24.8145V22.5029C17.9619 22.0986 17.6455 21.7734 17.2412 21.7734C16.8281 21.7734 16.5205 22.0986 16.5205 22.5029V24.8145C16.5205 25.2188 16.8281 25.5352 17.2412 25.5352Z" fill="white"/>
</svg>
