<svg width="118" height="31" viewBox="0 0 118 31" fill="none" xmlns="http://www.w3.org/2000/svg">
<path fill-rule="evenodd" clip-rule="evenodd" d="M13.495 0.0907319C8.88506 0.703864 4.74763 3.38132 2.30832 7.32984C0.0470011 10.9904 -0.590255 15.5009 0.562314 19.6877C2.03923 25.0523 6.37279 29.2656 11.7846 30.5987C13.1971 30.9467 13.6913 31.0006 15.4618 31C17.199 30.9994 17.7403 30.9442 19.0461 30.6344C21.0607 30.1565 23.1256 29.1768 24.8326 27.8889C25.587 27.3197 26.872 26.0742 27.4789 25.3239C30.7742 21.2505 31.8114 15.691 30.2019 10.7294C28.831 6.50332 25.6784 3.0115 21.6529 1.26047C20.2971 0.670666 18.8217 0.266538 17.369 0.0869674C16.4184 -0.0305867 14.3921 -0.0286117 13.495 0.0907319ZM17.3562 2.80429C20.0618 3.20761 22.5247 4.45634 24.4889 6.42051C26.4049 8.33655 27.5862 10.6106 28.0956 13.3636C28.2279 14.0788 28.2821 16.0601 28.192 16.8896C27.9527 19.0938 27.179 21.1214 25.8508 23.0252C25.3565 23.7337 23.7372 25.3715 23.0418 25.8662C20.9354 27.3651 18.8729 28.1212 16.3541 28.3182C15.0723 28.4185 14.4555 28.3065 13.7689 27.849C13.0812 27.3907 12.5745 26.6283 11.8297 24.9312C10.8491 22.697 10.4432 21.9846 9.74654 21.2746C9.08199 20.5974 8.31185 20.1382 6.55264 19.3699C4.78838 18.5994 4.08739 18.1979 3.52929 17.6378C2.85774 16.964 2.63696 16.2441 2.69843 14.9283C2.87532 11.1392 4.6614 7.68923 7.65591 5.35234C9.61329 3.82476 12.0235 2.89481 14.5706 2.68433C15.1295 2.63817 16.6936 2.70549 17.3562 2.80429Z" fill="white"/>
<path fill-rule="evenodd" clip-rule="evenodd" d="M39.9473 9.45245V10.7483H42.498H45.0488V16.7957V22.8431H46.401H47.7532V16.7964V10.7497L50.3193 10.7336L52.8854 10.7175L52.902 9.43702L52.9187 8.15658H46.433H39.9473V9.45245ZM55.7435 15.4999V22.8431H61.644H67.5445V21.5473V20.2514H62.9962H58.4479V18.5236V16.7957H62.1665H65.885V15.4999V14.204H62.1665H58.4479V12.4762V10.7483H62.9962H67.5445V9.45245V8.15658H61.644H55.7435V15.4999ZM70.0787 9.43702L70.0953 10.7175L72.6614 10.7336L75.2275 10.7497V16.7964V22.8431H76.5797H77.9319V16.7957V10.7483H80.4827H83.0334V9.45245V8.15658H76.5478H70.062L70.0787 9.43702ZM88.7495 8.17947C88.7495 8.19206 88.8774 8.49061 89.0337 8.84284C89.1899 9.19507 89.6024 10.1914 89.9502 11.0569C90.298 11.9223 90.9825 13.6231 91.4713 14.8365L92.36 17.0426L89.4945 17.0436C86.3758 17.0448 86.1469 17.0645 85.4142 17.3939C85.052 17.5568 84.4888 17.9655 84.2438 18.2433C83.8255 18.7174 83.4993 19.4358 82.1896 22.7672C82.1652 22.8294 82.4471 22.8421 83.5581 22.8289L84.9574 22.8123L85.4461 21.5969C85.9831 20.2615 86.1399 20.0311 86.7024 19.7507L86.9978 19.6034H90.1911H93.3842L94.0288 21.2233L94.6733 22.8431H96.0512C97.3369 22.8431 97.4266 22.8359 97.3912 22.7351C97.3704 22.6758 96.0606 19.3715 94.4805 15.3924L91.6076 8.15757L90.1786 8.15707C89.3926 8.15683 88.7495 8.16688 88.7495 8.17947ZM96.6358 8.35602C96.6815 8.46691 97.9992 11.7724 99.564 15.7015L102.409 22.8452L103.949 22.8288L105.489 22.8123L108.367 15.5924C109.95 11.6215 111.261 8.32393 111.28 8.26457C111.313 8.1638 111.221 8.15664 109.913 8.15751L108.51 8.15843L107.532 10.6104C104.588 17.9918 103.975 19.5108 103.939 19.5097C103.918 19.509 102.89 16.9612 101.655 13.848L99.4092 8.18743L97.981 8.1709L96.5529 8.1543L96.6358 8.35602ZM114.38 15.4999V22.8431H115.763H117.146V15.4999V8.15658H115.763H114.38V15.4999Z" fill="white"/>
</svg>
