<svg width="47" height="36" viewBox="0 0 47 36" fill="none" xmlns="http://www.w3.org/2000/svg">
<path d="M23.5199 20.319C24.3837 20.319 25.1471 19.9172 26.0511 19.0132L43.569 1.63595C42.7855 0.932826 41.3993 0.591309 39.4507 0.591309H7.04667C5.31899 0.591309 4.09354 0.912737 3.39042 1.55559L20.9886 19.0132C21.8726 19.9172 22.656 20.319 23.5199 20.319ZM1.46184 32.473L15.906 18.1694L1.48193 3.92613C1.12033 4.56899 0.919434 5.63372 0.919434 7.14042V29.3391C0.919434 30.8056 1.10024 31.8502 1.46184 32.473ZM45.5377 32.4529C45.8793 31.8301 46.0601 30.7855 46.0601 29.3391V7.14042C46.0601 5.6739 45.8592 4.60917 45.4976 3.9864L31.1337 18.1694L45.5377 32.4529ZM7.52881 35.8882H39.9328C41.7007 35.8882 42.9462 35.5467 43.6694 34.8837L28.9641 20.2788L27.7185 21.5043C26.3324 22.8502 25.0065 23.4931 23.5199 23.4931C22.0333 23.4931 20.6873 22.8502 19.3011 21.5043L18.0556 20.2788L3.37033 34.8435C4.1739 35.5266 5.58015 35.8882 7.52881 35.8882Z" fill="#523BDA"/>
</svg>
