<svg width="47" height="47" viewBox="0 0 47 47" fill="none" xmlns="http://www.w3.org/2000/svg">
<path d="M2.72785 27.8705L18.8595 43.9821C21.9332 47.0558 25.0872 47.0759 28.1207 44.0223L44.3127 27.8303C47.3662 24.7768 47.3461 21.6228 44.2725 18.5491L28.1609 2.43749C25.0872 -0.636175 21.9332 -0.656264 18.8796 2.39731L2.68767 18.5893C-0.365902 21.6428 -0.325724 24.7969 2.72785 27.8705ZM21.2703 33.1339C20.4868 33.1339 19.8841 32.7924 19.3216 32.0692L14.3997 26.0826C14.0381 25.6406 13.8573 25.1585 13.8573 24.6562C13.8573 23.6317 14.6609 22.7879 15.6854 22.7879C16.3082 22.7879 16.8104 23.029 17.3127 23.6719L21.1899 28.5937L29.5069 15.2946C29.9287 14.5915 30.4912 14.25 31.1341 14.25C32.1185 14.25 33.0426 14.9531 33.0426 15.9978C33.0426 16.4598 32.8015 16.962 32.5203 17.404L23.1185 32.0692C22.6564 32.7522 22.0136 33.1339 21.2703 33.1339Z" fill="#523BDA"/>
</svg>
